<?xml version="1.0" encoding="utf-8"?>
<!-- Generator: Adobe Illustrator 27.4.1, SVG Export Plug-In . SVG Version: 6.00 Build 0)  -->
<svg version="1.1" id="Layer_1" xmlns="http://www.w3.org/2000/svg" xmlns:xlink="http://www.w3.org/1999/xlink" x="0px" y="0px"
	 viewBox="0 0 123.9 150.9" style="enable-background:new 0 0 123.9 150.9;" xml:space="preserve">
<style type="text/css">
	.st0{fill:#F7B21A;}
	.st1{fill:#1F1A4D;}
</style>
<path class="st0" d="M123.8,0l0.1,89.2c0,0.2,0,0.4,0,0.7c-0.4,33.8-27.9,61-61.9,61c-34,0-61.5-27.3-61.9-61c0-0.2,0-0.4,0-0.7L0,0
	H123.8z"/>
<path class="st1" d="M30.4,59v7.2c0,0.1-0.1,0.2-0.2,0.2h-0.7c-0.1,0-0.2-0.1-0.2-0.2l0-1.3c-0.6,1-1.6,1.7-3,1.7
	c-2.2,0-3.8-1.7-3.8-4c0-2.3,1.5-4,3.8-4c1.4,0,2.4,0.7,3,1.7l0-1.3c0-0.1,0.1-0.2,0.2-0.2h0.7C30.3,58.8,30.4,58.9,30.4,59z
	 M29.3,62.6c0-1.8-1.1-3-2.8-3c-1.6,0-2.8,1.2-2.8,3s1.2,3,2.8,3C28.1,65.6,29.3,64.4,29.3,62.6z"/>
<path class="st1" d="M36.5,59v0.5c0,0.2-0.1,0.2-0.3,0.2c-0.2-0.1-0.4-0.1-0.5-0.1c-1.4,0-1.8,1.2-1.8,2.1v4.5
	c0,0.1-0.1,0.2-0.2,0.2h-0.7c-0.1,0-0.2-0.1-0.2-0.2V59c0-0.1,0.1-0.2,0.2-0.2h0.7c0.2,0,0.2,0.1,0.2,0.2l0,0.9
	c0.3-0.7,0.8-1.3,1.8-1.3c0.3,0,0.6,0.1,0.7,0.2C36.4,58.8,36.5,58.9,36.5,59L36.5,59z"/>
<path class="st1" d="M37.5,62.6c0-2.3,1.7-4,4-4c1.2,0,2.2,0.5,2.9,1.3c0.1,0.1,0.1,0.2,0,0.3L44,60.6c-0.1,0.1-0.3,0.1-0.4,0
	c-0.5-0.5-1.1-0.9-2.1-0.9c-1.7,0-2.9,1.2-2.9,3c0,1.8,1.3,3,3,3c1,0,1.6-0.4,2.1-0.9c0.1-0.1,0.2-0.2,0.4,0l0.4,0.4
	c0.1,0.1,0.1,0.2,0,0.3c-0.7,0.8-1.6,1.3-2.9,1.3C39.3,66.6,37.5,64.9,37.5,62.6L37.5,62.6z"/>
<path class="st1" d="M51.5,59.7v5.1c0,0.6,0.2,0.8,0.7,0.8c0.1,0,0.3,0,0.5,0c0.2,0,0.3,0,0.3,0.2v0.5c0,0.3-0.6,0.3-1,0.3
	c-1.1,0-1.6-0.5-1.6-1.7v-5.3h-1c-0.1,0-0.2-0.1-0.2-0.2V59c0-0.1,0.1-0.2,0.2-0.2h1V57c0-0.1,0.1-0.2,0.2-0.2h0.7
	c0.1,0,0.2,0.1,0.2,0.2v1.8h1.3c0.1,0,0.2,0.1,0.2,0.2v0.5c0,0.1-0.1,0.2-0.2,0.2H51.5L51.5,59.7z"/>
<path class="st1" d="M58.6,59v0.5c0,0.2-0.1,0.2-0.3,0.2c-0.2-0.1-0.4-0.1-0.5-0.1c-1.4,0-1.8,1.2-1.8,2.1v4.5
	c0,0.1-0.1,0.2-0.2,0.2h-0.7c-0.1,0-0.2-0.1-0.2-0.2V59c0-0.1,0.1-0.2,0.2-0.2h0.7c0.2,0,0.2,0.1,0.2,0.2l0,0.9
	c0.3-0.7,0.8-1.3,1.8-1.3c0.3,0,0.6,0.1,0.7,0.2C58.6,58.8,58.6,58.9,58.6,59L58.6,59z"/>
<path class="st1" d="M67.5,59v7.2c0,0.1-0.1,0.2-0.2,0.2h-0.7c-0.1,0-0.2-0.1-0.2-0.2l0-1.3c-0.6,1-1.6,1.7-3,1.7
	c-2.2,0-3.8-1.7-3.8-4c0-2.3,1.5-4,3.8-4c1.4,0,2.4,0.7,3,1.7l0-1.3c0-0.1,0.1-0.2,0.2-0.2h0.7C67.5,58.8,67.5,58.9,67.5,59z
	 M66.4,62.6c0-1.8-1.1-3-2.8-3c-1.6,0-2.8,1.2-2.8,3s1.2,3,2.8,3C65.3,65.6,66.4,64.4,66.4,62.6z"/>
<path class="st1" d="M69.8,56.1c0-0.4,0.3-0.7,0.7-0.7c0.4,0,0.7,0.3,0.7,0.7c0,0.4-0.3,0.7-0.7,0.7C70.1,56.8,69.8,56.5,69.8,56.1z
	 M69.9,66.2V59c0-0.1,0.1-0.2,0.2-0.2h0.7c0.1,0,0.2,0.1,0.2,0.2v7.2c0,0.1-0.1,0.2-0.2,0.2h-0.7C70,66.4,69.9,66.4,69.9,66.2z"/>
<path class="st1" d="M79.9,61.7v4.5c0,0.1-0.1,0.2-0.2,0.2h-0.7c-0.1,0-0.2-0.1-0.2-0.2v-4.4c0-1.4-0.7-2.2-2-2.2
	c-1.3,0-2.2,0.8-2.2,2.2v4.4c0,0.1-0.1,0.2-0.2,0.2h-0.7c-0.1,0-0.2-0.1-0.2-0.2V59c0-0.1,0.1-0.2,0.2-0.2h0.7
	c0.2,0,0.2,0.1,0.2,0.2l0,1c0.4-0.8,1.2-1.4,2.5-1.4C78.7,58.6,79.9,59.7,79.9,61.7z"/>
<path class="st1" d="M82.1,56.1c0-0.4,0.3-0.7,0.7-0.7c0.4,0,0.7,0.3,0.7,0.7c0,0.4-0.3,0.7-0.7,0.7C82.4,56.8,82.1,56.5,82.1,56.1z
	 M82.2,66.2V59c0-0.1,0.1-0.2,0.2-0.2h0.7c0.1,0,0.2,0.1,0.2,0.2v7.2c0,0.1-0.1,0.2-0.2,0.2h-0.7C82.3,66.4,82.2,66.4,82.2,66.2z"/>
<path class="st1" d="M92.2,61.7v4.5c0,0.1-0.1,0.2-0.2,0.2h-0.7c-0.1,0-0.2-0.1-0.2-0.2v-4.4c0-1.4-0.7-2.2-2-2.2
	c-1.3,0-2.2,0.8-2.2,2.2v4.4c0,0.1-0.1,0.2-0.2,0.2h-0.7c-0.1,0-0.2-0.1-0.2-0.2V59c0-0.1,0.1-0.2,0.2-0.2h0.7
	c0.2,0,0.2,0.1,0.2,0.2l0,1c0.4-0.8,1.2-1.4,2.5-1.4C91.1,58.6,92.2,59.7,92.2,61.7z"/>
<path class="st1" d="M101.9,59v7.1c0,2.5-1.9,3.5-3.9,3.5c-1.1,0-2.1-0.3-2.7-0.7c-0.1-0.1-0.2-0.2-0.1-0.3l0.2-0.4
	c0.1-0.1,0.2-0.1,0.3-0.1c0.7,0.4,1.4,0.6,2.2,0.6c1.5,0,2.9-0.7,2.9-2.6v-1.3c-0.6,1-1.6,1.6-2.9,1.6c-2.2,0-3.7-1.6-3.7-3.9
	c0-2.3,1.5-3.9,3.7-3.9c1.4,0,2.4,0.6,2.9,1.6l0-1.2c0-0.1,0-0.2,0.2-0.2h0.7C101.9,58.8,101.9,58.8,101.9,59L101.9,59z M100.8,62.5
	c0-1.8-1.1-2.9-2.7-2.9c-1.6,0-2.8,1.1-2.8,2.8c0,1.7,1.2,2.8,2.8,2.8C99.7,65.3,100.8,64.2,100.8,62.5z"/>
<path class="st1" d="M22.5,77.7c0-2.3,1.7-4,4-4c1.2,0,2.2,0.5,2.9,1.3c0.1,0.1,0.1,0.2,0,0.3L29,75.6c-0.1,0.1-0.3,0.1-0.4,0
	c-0.5-0.5-1.1-0.9-2.1-0.9c-1.7,0-2.9,1.2-2.9,3s1.3,3,3,3c1,0,1.6-0.4,2.1-0.9c0.1-0.1,0.2-0.2,0.4,0l0.4,0.4
	c0.1,0.1,0.1,0.2,0,0.3c-0.7,0.8-1.6,1.3-2.9,1.3C24.3,81.7,22.5,80,22.5,77.7L22.5,77.7z"/>
<path class="st1" d="M37.7,78.1h-5.8c0.1,1.5,1.2,2.7,3.1,2.7c0.9,0,1.6-0.3,2.2-0.7c0.1-0.1,0.2-0.1,0.2,0l0.3,0.4
	c0.1,0.1,0,0.2-0.1,0.3c-0.7,0.7-1.7,1-2.7,1c-2.5,0-4.1-1.8-4.1-4.1c0-2.2,1.6-4,3.9-4c2.3,0,3.6,1.8,3.6,3.6
	C38.2,77.8,38.1,78.1,37.7,78.1L37.7,78.1z M31.9,77.2h5.3c0-1.5-1.1-2.5-2.6-2.5C33.1,74.6,32,75.6,31.9,77.2z"/>
<path class="st1" d="M46.7,76.8v4.5c0,0.1-0.1,0.2-0.2,0.2h-0.7c-0.1,0-0.2-0.1-0.2-0.2v-4.4c0-1.4-0.7-2.2-2-2.2
	c-1.3,0-2.2,0.8-2.2,2.2v4.4c0,0.1-0.1,0.2-0.2,0.2h-0.7c-0.1,0-0.2-0.1-0.2-0.2v-7.2c0-0.1,0.1-0.2,0.2-0.2h0.7
	c0.2,0,0.2,0.1,0.2,0.2l0,1c0.4-0.8,1.2-1.4,2.5-1.4C45.5,73.7,46.7,74.7,46.7,76.8z"/>
<path class="st1" d="M50.6,74.8v5.1c0,0.6,0.2,0.8,0.7,0.8c0.1,0,0.3,0,0.5,0c0.2,0,0.3,0,0.3,0.2v0.5c0,0.3-0.6,0.3-1,0.3
	c-1.1,0-1.6-0.5-1.6-1.7v-5.3h-1c-0.1,0-0.2-0.1-0.2-0.2V74c0-0.1,0.1-0.2,0.2-0.2h1V72c0-0.1,0.1-0.2,0.2-0.2h0.7
	c0.1,0,0.2,0.1,0.2,0.2v1.8H52c0.1,0,0.2,0.1,0.2,0.2v0.5c0,0.1-0.1,0.2-0.2,0.2H50.6L50.6,74.8z"/>
<path class="st1" d="M57.8,74.1v0.5c0,0.2-0.1,0.2-0.3,0.2c-0.2-0.1-0.4-0.1-0.5-0.1c-1.4,0-1.8,1.2-1.8,2.1v4.5
	c0,0.1-0.1,0.2-0.2,0.2h-0.7c-0.1,0-0.2-0.1-0.2-0.2V74c0-0.1,0.1-0.2,0.2-0.2h0.7c0.2,0,0.2,0.1,0.2,0.2l0,0.9
	c0.3-0.7,0.8-1.3,1.8-1.3c0.3,0,0.6,0.1,0.7,0.2C57.8,73.9,57.8,73.9,57.8,74.1L57.8,74.1z"/>
<path class="st1" d="M65.7,78.1h-5.8c0.1,1.5,1.2,2.7,3.1,2.7c0.9,0,1.6-0.3,2.2-0.7c0.1-0.1,0.2-0.1,0.2,0l0.3,0.4
	c0.1,0.1,0,0.2-0.1,0.3c-0.7,0.7-1.7,1-2.7,1c-2.5,0-4.1-1.8-4.1-4.1c0-2.2,1.6-4,3.9-4c2.3,0,3.6,1.8,3.6,3.6
	C66.3,77.8,66.2,78.1,65.7,78.1L65.7,78.1z M59.9,77.2h5.3c0-1.5-1.1-2.5-2.6-2.5C61.2,74.6,60.1,75.6,59.9,77.2z"/>
<path class="st1" d="M73.2,72.4v1.5h1.6c0.1,0,0.2,0.1,0.2,0.2v0.5c0,0.1-0.1,0.2-0.2,0.2h-1.6v6.5c0,0.1-0.1,0.2-0.2,0.2h-0.7
	c-0.1,0-0.2-0.1-0.2-0.2v-6.5h-0.9c-0.1,0-0.2-0.1-0.2-0.2v-0.5c0-0.1,0.1-0.2,0.2-0.2h0.9v-1.7c0-1.3,0.7-2,2-2
	c0.3,0,0.5,0,0.7,0.1c0.1,0,0.1,0.1,0.1,0.2V71c0,0.1-0.1,0.1-0.2,0.1c-0.2,0-0.4,0-0.5,0C73.4,71.1,73.2,71.6,73.2,72.4L73.2,72.4z
	"/>
<path class="st1" d="M76,77.7c0-2.3,1.7-4,3.9-4c2.2,0,3.9,1.7,3.9,4c0,2.3-1.7,4-3.9,4C77.7,81.7,76,80,76,77.7z M82.8,77.7
	c0-1.7-1.2-3-2.8-3c-1.6,0-2.8,1.2-2.8,3c0,1.7,1.2,3,2.8,3C81.6,80.6,82.8,79.4,82.8,77.7z"/>
<path class="st1" d="M89.6,74.1v0.5c0,0.2-0.1,0.2-0.3,0.2c-0.2-0.1-0.4-0.1-0.5-0.1c-1.4,0-1.8,1.2-1.8,2.1v4.5
	c0,0.1-0.1,0.2-0.2,0.2h-0.7c-0.1,0-0.2-0.1-0.2-0.2V74c0-0.1,0.1-0.2,0.2-0.2h0.7c0.2,0,0.2,0.1,0.2,0.2l0,0.9
	c0.3-0.7,0.8-1.3,1.8-1.3c0.3,0,0.6,0.1,0.7,0.2C89.6,73.9,89.6,73.9,89.6,74.1L89.6,74.1z"/>
<path class="st1" d="M22.6,86.3c0-0.7,0.5-1.2,1.2-1.2c0.7,0,1.2,0.5,1.2,1.2c0,0.7-0.5,1.2-1.2,1.2C23.1,87.5,22.6,87,22.6,86.3z
	 M22.7,96.3v-7.2c0-0.1,0.1-0.2,0.2-0.2h1.7c0.1,0,0.2,0.1,0.2,0.2v7.2c0,0.1-0.1,0.2-0.2,0.2h-1.7C22.8,96.6,22.7,96.5,22.7,96.3z"
	/>
<path class="st1" d="M34,91.9v4.5c0,0.1-0.1,0.2-0.3,0.2h-1.7c-0.1,0-0.2-0.1-0.2-0.2v-4c0-1.1-0.5-1.7-1.4-1.7
	c-0.9,0-1.5,0.6-1.5,1.7v4c0,0.1-0.1,0.2-0.2,0.2H27c-0.1,0-0.2-0.1-0.2-0.2v-7.2c0-0.1,0.1-0.2,0.2-0.2h1.6c0.1,0,0.2,0.1,0.2,0.3
	l0.1,0.9c0.4-0.8,1.2-1.3,2.3-1.3C32.8,88.7,34,89.9,34,91.9z"/>
<path class="st1" d="M38.4,88v0.9h1.5c0.1,0,0.2,0.1,0.2,0.2v1.2c0,0.1-0.1,0.2-0.2,0.2h-1.5v5.8c0,0.1-0.1,0.2-0.2,0.2h-1.7
	c-0.1,0-0.2-0.1-0.2-0.2v-5.8h-0.9c-0.1,0-0.2-0.1-0.2-0.2v-1.2c0-0.1,0.1-0.2,0.2-0.2h0.9v-1.2c0-1.8,1-2.6,2.6-2.6
	c0.4,0,0.8,0,1.2,0.2c0.1,0,0.1,0.1,0.1,0.2V87c0,0.1-0.1,0.1-0.2,0.1c-0.3,0-0.5-0.1-0.6-0.1C38.6,87,38.4,87.4,38.4,88L38.4,88z"
	/>
<path class="st1" d="M40.7,92.7c0-2.3,1.7-4,4-4c2.3,0,4,1.8,4,4c0,2.3-1.7,4-4,4C42.4,96.7,40.7,95,40.7,92.7z M46.7,92.7
	c0-1.3-0.8-2-1.9-2c-1.1,0-1.9,0.8-1.9,2c0,1.3,0.8,2,1.9,2C45.8,94.8,46.7,94,46.7,92.7z"/>
<path class="st1" d="M54.9,89.2v1.3c0,0.2-0.1,0.2-0.3,0.2c-0.2,0-0.3-0.1-0.6-0.1c-1.1,0-1.6,0.7-1.6,1.8v3.8
	c0,0.1-0.1,0.2-0.2,0.2h-1.7c-0.1,0-0.2-0.1-0.2-0.2v-7.2c0-0.1,0.1-0.2,0.2-0.2h1.6c0.1,0,0.2,0.1,0.2,0.3l0.1,1
	c0.3-0.8,0.7-1.4,1.7-1.4c0.4,0,0.6,0.1,0.7,0.2C54.8,89,54.9,89.1,54.9,89.2L54.9,89.2z"/>
<path class="st1" d="M67.8,91.8v4.5c0,0.1-0.1,0.2-0.2,0.2h-1.7c-0.1,0-0.2-0.1-0.2-0.2v-4c0-1-0.4-1.6-1.2-1.6
	c-0.8,0-1.3,0.6-1.3,1.6v4c0,0.1-0.1,0.2-0.2,0.2h-1.7c-0.2,0-0.3-0.1-0.3-0.2v-4c0-1-0.4-1.6-1.2-1.6c-0.8,0-1.3,0.6-1.3,1.6v4
	c0,0.1-0.1,0.2-0.2,0.2h-1.7c-0.1,0-0.2-0.1-0.2-0.2v-7.2c0-0.1,0.1-0.2,0.2-0.2h1.6c0.1,0,0.2,0.1,0.2,0.3l0,0.8
	c0.4-0.7,1.1-1.3,2.2-1.3c1,0,1.8,0.5,2.2,1.4c0.4-0.8,1.2-1.4,2.4-1.4C66.8,88.7,67.8,89.8,67.8,91.8L67.8,91.8z"/>
<path class="st1" d="M77.4,89.1v7.2c0,0.1-0.1,0.2-0.3,0.2h-1.5c-0.1,0-0.2-0.1-0.2-0.2l0-0.8c-0.5,0.8-1.4,1.3-2.5,1.3
	c-2.2,0-3.7-1.7-3.7-4c0-2.3,1.5-4,3.7-4c1.2,0,2,0.5,2.5,1.3l0-0.8c0-0.1,0.1-0.2,0.2-0.2h1.5C77.3,88.9,77.4,89,77.4,89.1z
	 M75.3,92.7c0-1.2-0.8-2-1.9-2s-2,0.8-2,2c0,1.2,0.8,2,2,2S75.3,94,75.3,92.7z"/>
<path class="st1" d="M82.2,90.6v3.7c0,0.5,0.3,0.7,0.7,0.7c0.1,0,0.3,0,0.5,0c0.2,0,0.3,0.1,0.3,0.2v1.1c0,0.4-0.8,0.5-1.3,0.5
	c-1.2,0-2.3-0.6-2.3-2.2v-3.9h-1c-0.1,0-0.2-0.1-0.2-0.2v-1.2c0-0.1,0.1-0.2,0.2-0.2h1v-1.8c0-0.1,0.1-0.2,0.2-0.2H82
	c0.1,0,0.2,0.1,0.2,0.2v1.8h1.2c0.1,0,0.2,0.1,0.2,0.2v1.2c0,0.1-0.1,0.2-0.2,0.2L82.2,90.6L82.2,90.6z"/>
<path class="st1" d="M85,86.3c0-0.7,0.5-1.2,1.2-1.2c0.7,0,1.2,0.5,1.2,1.2c0,0.7-0.5,1.2-1.2,1.2C85.5,87.5,85,87,85,86.3z
	 M85.1,96.3v-7.2c0-0.1,0.1-0.2,0.2-0.2H87c0.1,0,0.2,0.1,0.2,0.2v7.2c0,0.1-0.1,0.2-0.2,0.2h-1.7C85.2,96.6,85.1,96.5,85.1,96.3z"
	/>
<path class="st1" d="M88.7,92.7c0-2.3,1.7-4,4-4c2.3,0,4,1.8,4,4c0,2.3-1.7,4-4,4C90.5,96.7,88.7,95,88.7,92.7z M94.7,92.7
	c0-1.3-0.8-2-1.9-2c-1.1,0-1.9,0.8-1.9,2c0,1.3,0.8,2,1.9,2C93.9,94.8,94.7,94,94.7,92.7z"/>
<path class="st1" d="M105.5,91.9v4.5c0,0.1-0.1,0.2-0.3,0.2h-1.7c-0.1,0-0.2-0.1-0.2-0.2v-4c0-1.1-0.5-1.7-1.4-1.7
	c-0.9,0-1.5,0.6-1.5,1.7v4c0,0.1-0.1,0.2-0.2,0.2h-1.7c-0.1,0-0.2-0.1-0.2-0.2v-7.2c0-0.1,0.1-0.2,0.2-0.2h1.6
	c0.1,0,0.2,0.1,0.2,0.3l0.1,0.9c0.4-0.8,1.2-1.3,2.3-1.3C104.3,88.7,105.5,89.9,105.5,91.9z"/>
<path class="st1" d="M27.3,104.3v1.3c0,0.2-0.1,0.2-0.3,0.2c-0.2,0-0.3-0.1-0.6-0.1c-1.1,0-1.6,0.7-1.6,1.8v3.8
	c0,0.1-0.1,0.2-0.2,0.2h-1.7c-0.1,0-0.2-0.1-0.2-0.2v-7.2c0-0.1,0.1-0.2,0.2-0.2h1.6c0.1,0,0.2,0.1,0.2,0.3l0.1,1
	c0.3-0.8,0.7-1.4,1.7-1.4c0.4,0,0.6,0.1,0.7,0.2C27.3,104,27.4,104.1,27.3,104.3L27.3,104.3z"/>
<path class="st1" d="M34.9,108.6h-4.7c0.2,1,1,1.5,2.3,1.5c0.6,0,1.2-0.1,1.8-0.5c0.1-0.1,0.2,0,0.3,0.1l0.6,0.8
	c0.1,0.1,0.1,0.2-0.1,0.3c-0.7,0.7-1.6,1-2.7,1c-2.5,0-4.2-1.7-4.2-4.1s1.6-4,3.9-4s3.7,1.7,3.7,3.7
	C35.8,108.2,35.6,108.6,34.9,108.6z M30.2,107.1h3.6c-0.1-1-0.8-1.5-1.7-1.5C31.1,105.5,30.4,106.1,30.2,107.1z"/>
<path class="st1" d="M36.8,110.5c-0.1-0.1-0.1-0.3,0-0.5l0.5-0.8c0.1-0.2,0.3-0.2,0.4-0.1c0.6,0.5,1.2,0.7,1.8,0.7
	c0.5,0,0.9-0.2,0.9-0.6c0-0.4-0.2-0.6-0.8-0.8l-1-0.4c-1-0.4-1.7-1-1.7-2.1c0-1.5,1.3-2.3,2.7-2.3c1,0,1.9,0.4,2.6,1.2
	c0.1,0.1,0.1,0.2,0,0.3l-0.7,0.8c-0.1,0.1-0.2,0.1-0.4,0c-0.5-0.4-0.9-0.6-1.4-0.6c-0.5,0-0.7,0.3-0.7,0.6c0,0.4,0.3,0.6,0.7,0.7
	l1.1,0.4c1,0.4,1.7,1,1.7,2.2c0,1.6-1.4,2.3-2.9,2.3C38.4,111.8,37.4,111.3,36.8,110.5L36.8,110.5z"/>
<path class="st1" d="M44,101.4c0-0.7,0.5-1.2,1.2-1.2c0.7,0,1.2,0.5,1.2,1.2c0,0.7-0.5,1.2-1.2,1.2C44.5,102.6,44,102.1,44,101.4z
	 M44.1,111.4v-7.2c0-0.1,0.1-0.2,0.2-0.2h1.7c0.1,0,0.2,0.1,0.2,0.2v7.2c0,0.1-0.1,0.2-0.2,0.2h-1.7
	C44.2,111.6,44.1,111.5,44.1,111.4z"/>
<path class="st1" d="M48.2,111.4v-10.7c0-0.1,0.1-0.2,0.2-0.2h1.7c0.1,0,0.2,0.1,0.2,0.2v10.7c0,0.1-0.1,0.2-0.2,0.2h-1.7
	C48.3,111.6,48.2,111.5,48.2,111.4z"/>
<path class="st1" d="M52.1,101.4c0-0.7,0.5-1.2,1.2-1.2c0.7,0,1.2,0.5,1.2,1.2c0,0.7-0.5,1.2-1.2,1.2
	C52.7,102.6,52.1,102.1,52.1,101.4z M52.3,111.4v-7.2c0-0.1,0.1-0.2,0.2-0.2h1.7c0.1,0,0.2,0.1,0.2,0.2v7.2c0,0.1-0.1,0.2-0.2,0.2
	h-1.7C52.3,111.6,52.3,111.5,52.3,111.4z"/>
<path class="st1" d="M62.7,108.6H58c0.2,1,1,1.5,2.3,1.5c0.6,0,1.2-0.1,1.8-0.5c0.1-0.1,0.2,0,0.3,0.1l0.6,0.8
	c0.1,0.1,0.1,0.2-0.1,0.3c-0.7,0.7-1.6,1-2.7,1c-2.5,0-4.2-1.7-4.2-4.1s1.6-4,3.9-4c2.4,0,3.7,1.7,3.7,3.7
	C63.6,108.2,63.4,108.6,62.7,108.6z M58,107.1h3.6c-0.1-1-0.8-1.5-1.7-1.5C58.9,105.5,58.2,106.1,58,107.1z"/>
<path class="st1" d="M72.3,106.9v4.5c0,0.1-0.1,0.2-0.3,0.2h-1.7c-0.1,0-0.2-0.1-0.2-0.2v-4c0-1.1-0.5-1.7-1.4-1.7
	c-0.9,0-1.5,0.6-1.5,1.7v4c0,0.1-0.1,0.2-0.2,0.2h-1.7c-0.1,0-0.2-0.1-0.2-0.2v-7.2c0-0.1,0.1-0.2,0.2-0.2h1.6
	c0.1,0,0.2,0.1,0.2,0.3l0.1,0.9c0.4-0.8,1.2-1.3,2.3-1.3C71.1,103.8,72.3,104.9,72.3,106.9z"/>
<path class="st1" d="M73.7,107.8c0-2.3,1.7-4,4-4c1.3,0,2.3,0.5,3,1.4c0.1,0.1,0.1,0.2,0,0.3l-0.9,0.9c-0.1,0.1-0.3,0.1-0.4,0
	c-0.4-0.4-0.9-0.6-1.5-0.6c-1.2,0-2,0.9-2,2s0.8,2.1,2.1,2.1c0.6,0,1.1-0.2,1.5-0.6c0.1-0.1,0.3-0.1,0.4,0l0.9,0.9
	c0.1,0.1,0.1,0.2,0,0.3c-0.7,0.8-1.7,1.4-2.9,1.4C75.4,111.8,73.7,110,73.7,107.8L73.7,107.8z"/>
<path class="st1" d="M88.3,108.6h-4.7c0.2,1,1,1.5,2.3,1.5c0.6,0,1.2-0.1,1.8-0.5c0.1-0.1,0.2,0,0.3,0.1l0.6,0.8
	c0.1,0.1,0.1,0.2-0.1,0.3c-0.7,0.7-1.6,1-2.7,1c-2.5,0-4.2-1.7-4.2-4.1s1.6-4,3.9-4c2.4,0,3.7,1.7,3.7,3.7
	C89.2,108.2,89,108.6,88.3,108.6z M83.7,107.1h3.6c-0.1-1-0.8-1.5-1.7-1.5C84.6,105.5,83.8,106.1,83.7,107.1z"/>
<path class="st1" d="M48.8,33.1c0,1.1-0.9,2-2,2s-2-0.9-2-2c0-1.1,0.9-2,2-2S48.8,32,48.8,33.1z"/>
<path class="st1" d="M48.5,37.8c-1-0.6-2.1-0.9-3.2-0.9c-0.5,0-0.9,0-1.4,0.1l-0.1,0V37c-0.2-2.3-0.9-4.3-2.2-5.6
	c-1.3-1.4-3-2.1-5-2.1c-1.8,0-3.5,0.7-4.8,1.9c-1,0.9-1.6,2.1-1.9,3.4v0H30c-0.3,0-0.7-0.1-1-0.1c-1.6,0-3.2,0.6-4.3,1.6
	c-1.3,1.1-2,2.7-2,4.6v7.4c0,0.1,0.1,0.2,0.2,0.2h0.7c0.1,0,0.2-0.1,0.2-0.2v-7.4c0-1.5,0.5-2.8,1.6-3.7c0.9-0.8,2.2-1.3,3.5-1.3
	c0.3,0,0.6,0,0.8,0.1h0v0.1c0,0.2,0,0.5,0,0.7c0,0.6,0,1.8,0,2.9V40c0,0.8,0,1.4,0,1.7c0,1.9,1.4,2.9,2.6,2.9c0.8,0,1.4-0.3,2-0.9
	c0.5-0.6,0.8-1.6,0.8-2.7c0-2-0.7-3.7-2-4.8c-0.6-0.5-1.3-0.9-2.1-1.2l0,0v0c0.3-1.1,0.8-2.1,1.6-2.8c1.1-1,2.5-1.6,4-1.6
	c1.6,0,3,0.6,4.1,1.8c1.2,1.2,1.8,3.1,1.9,5.3v0l0,0c-0.2,0.1-0.4,0.2-0.5,0.3c-1.1,0.6-2,1.5-2.6,2.6c-0.7,1.2-1,2.7-1,4.3
	c0,1,0.3,1.8,0.8,2.4c0.5,0.5,1.2,0.8,1.9,0.8c1.3,0,2.7-1,2.7-3.1s0-3.2-0.1-4.2c0-0.7,0-1.4,0-2.2v0h0c0.4-0.1,0.9-0.2,1.4-0.2
	c0.9,0,1.8,0.2,2.6,0.7c1,0.6,2.6,2.3,2.6,5.7v6.7c0,0.1,0.1,0.2,0.2,0.2h0.7c0.1,0,0.2-0.1,0.2-0.2v-6.7
	C51.8,41.6,50.6,39.1,48.5,37.8L48.5,37.8z M32.5,37c1,1,1.6,2.3,1.6,4c0,0.8-0.2,1.5-0.6,1.9c-0.3,0.3-0.7,0.5-1.1,0.5
	c-1,0-1.5-0.9-1.5-1.8c0-0.3,0-0.9,0-1.7v-0.5c0-1.1,0-2.3,0-2.9c0-0.1,0-0.3,0-0.4v-0.1l0.1,0C31.6,36.3,32.1,36.6,32.5,37L32.5,37
	z M41.4,46.7c-0.4,0-0.8-0.2-1.1-0.5c-0.3-0.4-0.5-0.9-0.5-1.6c0-2.6,1.1-4.8,2.9-5.9l0.1,0v0.1c0,0.6,0,1.2,0,1.8
	c0,1,0.1,2.2,0.1,4.2C42.9,46.1,42.1,46.7,41.4,46.7L41.4,46.7z"/>
</svg>
